DataType=double																
version=3																
OpenSimVersion=4.4-2022-07-23-0e9fedc																
endheader																
time	InvAntDelt	InvMedDelt	InvPosDelt	InvUpperTrap	NinvAntDelt	NinvMedDelt	NinvPosDelt	NinvUpperTrap	InvAntDelt	InvMedDelt	InvPosDelt	InvUpperTrap	NinvAntDelt	NinvMediDelt	NinvPosDelt	NinvUpperTrap
0	-3	0	101	27	-2	5	67	-1	-4	-26	-36	39	1	-1	-23	-1
0.00025	-3	2	102	21	4	-6	66	-1	-4	-25	-28	34	2	-4	-29	-1
0.0005	0	2	99	24	0	-2	60	2	-5	-20	-24	32	-1	-9	-34	3
0.00075	1	4	98	26	-1	-3	61	3	-3	-19	-25	35	-3	-14	-34	2
0.001	-3	5	96	28	-1	-1	63	2	-2	-19	-25	33	-6	-8	-38	-1
0.00125	-6	2	97	23	3	0	65	-3	-5	-20	-28	28	-6	-8	-42	3
0.0015	-4	0	94	27	-1	-1	60	4	-5	-18	-33	25	-2	-10	-44	1
0.00175	-1	2	89	26	-1	-5	61	1	-2	-18	-23	24	-5	-9	-41	0
0.002	0	1	90	24	-1	-2	59	1	-3	-15	-15	25	-7	-7	-39	0
0.00225	2	1	90	22	1	-4	58	-1	-4	-18	-4	24	-4	-7	-41	5
0.0025	-3	3	86	25	1	-4	58	0	-8	-20	6	25	-3	-11	-39	4
0.00275	-2	1	88	23	1	-8	62	-1	-4	-19	13	27	-3	-6	-43	4
0.003	3	0	87	22	-3	-3	57	0	-6	-10	15	33	-1	-13	-47	0
0.00325	1	0	85	22	-1	-2	56	-3	-2	-9	24	35	-3	-11	-51	2
0.0035	-1	2	84	23	1	-3	57	1	-3	-9	26	38	2	-15	-51	2
0.00375	-2	1	85	25	2	-3	60	-1	-5	-5	28	39	0	-13	-52	0
0.004	-5	-1	81	28	-1	-3	60	0	-4	-11	31	37	2	-18	-56	0
0.00425	-4	-1	78	25	0	-2	58	1	-1	-13	41	36	-2	-20	-66	2
0.0045	-2	1	78	21	1	-4	55	2	-3	-13	57	37	-4	-22	-76	1
0.00475	-1	-1	79	23	-3	-4	57	1	-8	-8	67	32	-5	-20	-86	-1
0.005	-2	3	80	24	-4	-7	58	-2	-10	-8	76	28	-1	-18	-94	-3
0.00525	-2	2	81	24	2	-3	59	-3	-8	-9	80	28	-3	-14	-93	0
0.0055	-1	0	77	27	0	-2	60	-2	-12	-12	85	24	-5	-13	-91	0
0.00575	-3	-4	78	27	-2	-3	58	1	-12	-11	86	18	-4	-15	-88	-1
0.006	-5	4	79	24	-2	-4	60	-1	-4	-7	85	14	-5	-15	-84	-1
0.00625	-1	4	78	24	1	-3	57	2	-9	-5	82	19	-7	-19	-80	-3
0.0065	1	0	80	27	4	-4	59	0	-9	-6	86	23	-6	-21	-75	-4
0.00675	-4	-1	82	27	1	2	61	0	-10	-8	92	24	-8	-18	-77	-3
0.007	-6	1	81	22	3	-2	61	1	-9	-5	98	21	-6	-16	-83	-3
0.00725	-2	0	75	27	-1	-3	59	2	-8	-1	106	21	-4	-17	-87	1
0.0075	2	-1	81	25	1	-5	60	-1	-7	-3	127	19	-4	-20	-88	2
0.00775	0	2	82	24	2	-2	59	-1	-10	-4	143	17	-7	-13	-94	6
0.008	0	1	86	24	6	-5	60	-1	-14	-4	155	8	-8	-10	-100	6
0.00825	0	1	84	25	2	-3	58	0	-12	-5	154	5	-7	-14	-108	9
0.0085	3	-1	84	24	2	-6	61	-2	-9	-8	159	3	-10	-16	-113	7
0.00875	1	0	92	22	3	-3	64	-1	-13	-3	154	0	-12	-12	-120	6
0.009	2	0	90	24	4	-2	64	-2	-11	-3	137	-7	-3	-15	-123	5
0.00925	-1	-2	90	23	4	-3	64	1	-11	-6	114	-8	-3	-18	-126	7
0.0095	-1	-2	87	26	2	-6	68	1	-9	-10	92	-13	-4	-15	-136	5
0.00975	-2	-1	88	21	0	-5	65	1	-10	-6	69	-20	-4	-18	-142	5
0.01	0	2	88	16	1	-6	65	-2	-9	-6	49	-24	-4	-21	-149	5
0.01025	1	2	85	22	2	-5	67	-1	-15	-8	24	-20	-4	-21	-155	7
0.0105	-2	-1	86	24	0	-3	69	1	-20	-11	4	-18	-8	-14	-162	7
0.01075	-3	-1	85	20	1	-4	70	0	-20	-8	-7	-21	-2	-19	-174	9
0.011	1	2	83	22	0	-3	70	0	-16	-6	-16	-12	-5	-20	-184	10
0.01125	2	0	78	24	2	-5	72	1	-15	-9	-24	-9	-7	-21	-191	8
0.0115	-2	-4	82	21	3	-5	76	2	-17	-10	-35	-9	-7	-19	-199	11
0.01175	-1	-2	78	20	-1	-4	79	5	-16	-9	-50	-12	-4	-19	-206	10
0.012	-1	-1	75	18	0	-3	78	2	-14	-7	-70	-8	-5	-19	-213	9
0.01225	1	2	79	18	4	-6	80	0	-16	-14	-80	-10	-3	-22	-212	10
0.0125	1	-4	82	18	3	-3	86	1	-25	-15	-103	-15	0	-24	-211	10
0.01275	0	-1	79	19	1	-3	88	1	-16	-19	-115	-16	1	-27	-210	11
0.013	4	-1	80	18	3	-5	89	4	-18	-17	-117	-14	-1	-27	-209	12
0.01325	2	-1	83	17	7	-5	91	2	-19	-21	-111	-15	4	-29	-210	11
0.0135	3	-2	83	20	6	-4	93	3	-22	-17	-106	-11	1	-30	-209	8
0.01375	-4	2	79	20	4	-1	97	1	-15	-20	-97	-9	0	-30	-211	4
0.014	1	0	81	11	5	-5	95	4	-14	-20	-87	-7	0	-28	-212	3
0.01425	0	-1	79	17	4	-7	98	2	-18	-20	-81	-3	2	-27	-208	2
0.0145	-1	-3	79	21	3	2	97	0	-20	-21	-79	0	0	-25	-206	2
0.01475	1	3	81	14	6	-3	100	3	-17	-19	-73	-9	-1	-29	-210	-2
0.015	5	4	81	17	6	-3	102	4	-16	-17	-72	-3	1	-31	-214	-4
0.01525	4	-1	84	20	6	0	103	5	-17	-20	-64	-6	2	-31	-214	-7
0.0155	-2	0	78	16	5	-1	107	4	-17	-18	-61	-10	-1	-32	-218	-9
0.01575	6	0	76	12	8	-4	107	2	-15	-13	-58	-12	2	-30	-219	-14
0.016	5	0	79	16	6	-1	103	2	-17	-18	-57	-8	4	-29	-221	-12
0.01625	2	2	77	15	5	-4	109	4	-23	-18	-53	-11	1	-28	-214	-11
0.0165	5	1	78	14	9	-5	114	-2	-16	-13	-52	-12	-1	-29	-209	-14
0.01675	11	-2	81	13	9	-3	113	0	-16	-10	-41	-15	-1	-27	-204	-16
0.017	1	4	73	16	8	-2	114	0	-17	-11	-37	-13	0	-27	-194	-15
0.01725	4	-2	72	17	8	-5	119	2	-16	-13	-28	-14	0	-23	-185	-18
0.0175	2	1	76	11	2	-4	116	1	-17	-7	-17	-18	1	-22	-180	-21
0.01775	4	2	72	12	7	-4	114	0	-16	-4	-10	-22	-1	-22	-175	-20
0.018	2	2	69	16	7	-2	116	-1	-14	-8	-3	-20	-3	-24	-166	-20
0.01825	2	-3	71	12	8	-3	119	1	-19	-8	1	-28	-8	-21	-164	-21
0.0185	0	3	69	15	3	-1	117	3	-18	-5	5	-26	-7	-24	-158	-20
0.01875	4	2	69	19	5	-1	118	2	-19	-7	8	-23	-6	-19	-150	-24
0.019	0	-3	64	14	9	-5	119	4	-18	-9	10	-25	-9	-20	-139	-20
0.01925	7	-5	62	12	6	-8	121	3	-20	-3	8	-21	-12	-17	-132	-20
0.0195	2	1	67	13	3	-3	117	3	-17	-8	7	-20	-10	-15	-125	-17
0.01975	0	0	64	11	8	-4	121	1	-19	-9	-4	-21	-14	-9	-122	-14
0.02	6	-2	60	13	8	-4	116	3	-15	-7	-11	-19	-16	-11	-120	-15
0.02025	5	-3	67	15	6	-5	118	2	-13	-8	-13	-19	-15	-8	-126	-16
0.0205	2	0	63	13	6	-3	124	2	-16	-10	-20	-19	-12	-8	-129	-15
0.02075	5	-3	62	10	6	-3	123	-2	-10	-12	-28	-15	-15	-1	-142	-14
0.021	4	-1	59	10	6	-5	115	4	-14	-10	-34	-15	-14	-5	-149	-16
0.02125	3	1	59	17	4	-7	120	0	-17	-13	-40	-15	-12	-6	-159	-18
0.0215	4	3	57	15	5	-2	120	-1	-19	-13	-50	-15	-18	-5	-168	-19
0.02175	4	0	60	10	4	-1	122	5	-16	-12	-61	-25	-16	-6	-177	-23
0.022	5	2	59	12	5	-3	120	4	-14	-8	-74	-24	-15	-10	-184	-23
0.02225	5	-2	64	17	5	-2	123	3	-15	-9	-78	-26	-16	-10	-188	-24
0.0225	2	0	60	15	3	1	125	4	-17	-8	-84	-31	-19	-4	-187	-23
0.02275	1	0	56	11	6	-2	126	6	-17	-9	-83	-35	-15	-7	-187	-25
0.023	6	-2	57	15	2	-3	125	4	-16	-8	-82	-32	-15	-6	-183	-22
0.02325	3	0	60	13	6	-4	125	3	-15	-9	-75	-33	-16	-5	-168	-23
0.0235	3	-1	60	13	4	-1	126	3	-22	-8	-72	-41	-16	-5	-153	-20
0.02375	9	-1	59	14	4	1	125	-2	-14	-8	-72	-45	-10	-7	-137	-21
0.024	6	0	63	13	8	-4	126	-3	-14	-7	-70	-44	-8	-7	-125	-21
0.02425	6	-2	62	16	6	-3	127	1	-16	-9	-71	-46	-7	-10	-110	-20
0.0245	4	-1	60	18	2	-1	128	4	-15	-3	-72	-47	-9	-8	-98	-22
0.02475	7	-2	57	13	4	-1	124	2	-11	-2	-68	-47	-8	-8	-90	-21
0.025	4	1	57	14	4	-6	123	2	-15	-3	-67	-41	-7	-8	-76	-18
0.02525	5	-2	62	16	4	-4	124	3	-16	-6	-66	-39	-4	-12	-56	-18
0.0255	4	-1	60	18	3	-2	123	0	-14	-8	-67	-40	-6	-9	-38	-15
0.02575	5	0	59	16	2	-1	118	2	-11	-5	-74	-44	-5	-8	-18	-14
0.026	4	1	58	18	4	-1	114	4	-12	0	-82	-43	-4	-11	14	-15
0.02625	9	-1	59	21	2	-3	116	4	-11	-4	-85	-41	-8	-9	41	-16
0.0265	5	-1	62	20	1	-1	117	2	-9	-5	-90	-42	-5	-2	69	-15
0.02675	2	-2	61	17	6	0	115	4	-13	-6	-94	-38	-7	3	99	-12
0.027	4	-2	53	18	2	-1	110	4	-10	-6	-86	-42	-7	-2	131	-11
0.02725	7	-5	59	17	0	-4	112	1	-11	-6	-76	-36	-7	1	160	-12
0.0275	0	-2	63	18	4	-4	115	2	-9	-9	-65	-37	-5	4	186	-13
0.02775	4	-4	61	15	3	-4	119	2	-10	-9	-57	-39	-5	1	211	-12
0.028	6	-5	53	18	5	-5	117	2	-5	-11	-46	-39	-7	-2	228	-14
0.02825	5	-4	64	20	3	-5	123	2	-5	-9	-37	-38	-10	4	234	-18
0.0285	1	2	59	20	3	-2	124	3	-6	-10	-31	-37	-7	1	243	-16
0.02875	4	-4	59	21	4	-2	128	4	-6	-13	-31	-37	-9	2	243	-15
0.029	3	-5	55	19	3	-4	126	4	0	-15	-27	-38	-11	4	242	-15
0.02925	3	-1	58	17	1	-6	128	2	-5	-11	-31	-38	-14	8	232	-15
0.0295	3	0	61	18	3	-5	131	0	-5	-7	-40	-40	-11	6	221	-19
0.02975	4	-2	57	19	3	-1	130	2	-4	-12	-52	-41	-13	8	200	-16
0.03	3	-2	56	22	-1	-2	131	4	-5	-10	-58	-47	-12	7	181	-18
0.03025	2	1	56	21	2	-4	136	2	-5	-2	-66	-51	-16	9	161	-20
0.0305	8	-3	56	21	5	0	134	2	-6	0	-76	-51	-14	8	141	-23
0.03075	2	-1	55	24	3	0	132	4	-5	2	-86	-51	-17	9	122	-18
0.031	-1	-2	58	19	4	-4	135	6	-6	0	-95	-53	-18	7	113	-19
0.03125	4	-1	56	21	0	-3	133	3	-7	10	-105	-55	-21	10	104	-21
0.0315	7	-3	62	19	1	-3	132	2	-5	15	-115	-59	-20	11	98	-26
0.03175	3	0	56	23	4	-2	129	2	-10	17	-130	-61	-20	15	92	-22
0.032	6	-5	62	22	5	-3	132	4	-17	14	-143	-63	-21	8	93	-26
0.03225	6	1	63	23	2	-3	132	2	-25	26	-150	-67	-19	14	86	-27
0.0325	3	3	65	23	5	-3	130	2	-21	31	-156	-69	-18	14	74	-27
0.03275	0	2	66	25	6	-2	128	3	-23	36	-166	-67	-16	11	72	-27
0.033	4	-2	67	25	4	-5	131	4	-24	39	-167	-67	-15	13	57	-28
0.03325	2	-1	68	25	0	1	128	4	-26	45	-165	-66	-15	12	43	-29
0.0335	3	4	68	23	3	-2	126	1	-30	47	-161	-66	-13	13	27	-32
0.03375	4	3	70	29	5	-4	121	1	-30	46	-159	-65	-11	10	19	-34
0.034	5	1	71	29	4	-3	122	4	-32	35	-146	-70	-18	11	3	-34
0.03425	4	11	70	26	1	-1	121	5	-36	35	-133	-78	-16	6	-12	-36
0.0345	8	9	72	26	6	0	118	4	-38	28	-117	-73	-15	5	-23	-39
0.03475	6	4	72	33	4	3	112	7	-40	20	-98	-77	-13	6	-31	-40
0.035	2	4	73	31	3	-3	116	6	-44	22	-82	-78	-13	9	-40	-37
0.03525	7	6	71	28	3	-3	112	2	-42	17	-65	-74	-12	10	-42	-40
0.0355	10	4	74	31	4	-2	110	5	-44	13	-51	-69	-11	13	-39	-39
0.03575	8	4	78	31	5	-2	108	7	-52	7	-43	-66	-13	11	-22	-38
0.036	5	9	70	34	3	-2	110	6	-53	7	-42	-63	-18	12	1	-37
0.03625	15	4	74	30	9	-2	105	5	-53	6	-36	-59	-14	8	27	-41
0.0365	11	7	72	32	7	-3	104	6	-55	3	-36	-48	-10	5	57	-36
0.03675	8	8	73	35	8	-2	107	7	-56	-6	-39	-43	-9	2	97	-33
0.037	8	2	70	34	4	-1	109	8	-57	-3	-43	-37	-12	3	131	-31
0.03725	14	4	68	30	3	0	103	6	-56	-2	-43	-36	-10	2	162	-32
0.0375	11	7	65	32	5	-2	106	6	-58	-5	-47	-26	-9	1	191	-32
0.03775	13	5	69	32	7	-6	109	5	-61	-8	-52	-17	-14	3	224	-32
0.038	14	4	69	31	1	-1	110	10	-60	-7	-57	-18	-17	4	248	-35
0.03825	13	6	65	31	5	-1	110	7	-53	-4	-61	-23	-16	3	268	-35
